<svg width="109" height="136" viewBox="0 0 109 136" fill="none" xmlns="http://www.w3.org/2000/svg">
<path d="M81.3107 69.1195C79.8316 69.1195 78.4026 69.3274 77.0325 69.681L72.5515 58.4833L79.4436 56.9416C80.4049 57.0275 81.1647 57.8272 81.1647 58.8086C81.1647 59.8476 80.3177 60.6919 79.2779 60.6919C78.0745 60.6919 77.0979 61.6667 77.0979 62.8679C77.0979 64.0691 78.0745 65.0439 79.2779 65.0439C82.7223 65.0439 85.5247 62.2466 85.5247 58.8086C85.5247 55.3705 82.7223 52.5732 79.2779 52.5732C79.2702 52.5732 79.2637 52.5754 79.2561 52.5754C79.1896 52.5765 79.1231 52.5885 79.0566 52.595C78.9759 52.6037 78.8953 52.607 78.8179 52.6233C78.8124 52.6244 78.807 52.6244 78.8015 52.6255L69.1027 54.7949C69.045 54.808 68.9926 54.833 68.937 54.8504C68.8815 54.8678 68.8259 54.8765 68.7703 54.8983C68.7561 54.9037 68.7441 54.9135 68.7299 54.919C68.6558 54.9505 68.5893 54.9897 68.5196 55.0278C68.4607 55.0604 68.4008 55.0898 68.3463 55.1268C68.2874 55.167 68.2351 55.2149 68.1795 55.2617C68.125 55.3074 68.0683 55.3509 68.0193 55.401C67.9724 55.4488 67.9342 55.5021 67.8917 55.5533C67.846 55.6099 67.7969 55.6653 67.7566 55.7263C67.7195 55.7828 67.6912 55.8438 67.6596 55.9025C67.6258 55.9656 67.5898 56.0266 67.5626 56.0929C67.5364 56.1571 67.519 56.2246 67.4993 56.2909C67.4786 56.3584 67.4557 56.4237 67.4416 56.4922C67.4285 56.5586 67.4252 56.626 67.4176 56.6946C67.41 56.7686 67.4001 56.8415 67.4001 56.9165C67.4001 56.9796 67.41 57.0438 67.4154 57.108C67.423 57.1885 67.4285 57.268 67.4448 57.3485C67.4481 57.3637 67.447 57.3779 67.4503 57.3931C67.4699 57.479 67.5004 57.5585 67.5288 57.639C67.5386 57.6673 67.5419 57.6966 67.5538 57.7249L67.5669 57.7565L67.568 57.7587L70.1317 64.1659L49.9035 66.7009L45.3571 66.281L42.3966 56.9252H46.8471C48.0505 56.9252 49.0271 55.9504 49.0271 54.7492C49.0271 53.5481 48.0505 52.5732 46.8471 52.5732H34.8124C33.6091 52.5732 32.6324 53.5481 32.6324 54.7492C32.6324 55.9504 33.6091 56.9252 34.8124 56.9252H37.8208L42.4381 71.5153L40.2483 73.0614C37.1134 69.6886 32.651 67.5615 27.6893 67.5615C18.2313 67.5615 10.537 75.2417 10.537 84.6823C10.537 94.1229 18.2313 101.803 27.6893 101.803C35.5416 101.803 42.1623 96.5023 44.1886 89.303L44.6006 89.3661C44.896 90.2267 45.4039 90.9807 46.0732 91.5704L45.2786 94.2339C44.9353 95.386 45.5925 96.597 46.7468 96.9397C46.9539 97.0017 47.1632 97.03 47.3692 97.03C48.3088 97.03 49.1764 96.4186 49.4577 95.4742L50.2512 92.8107C52.7604 92.443 54.6984 90.3007 54.6984 87.6961C54.6984 87.1466 54.5894 86.6266 54.4291 86.1283L72.3477 69.7082L72.9788 71.2868C67.7239 74.2157 64.1574 79.8168 64.1574 86.2392C64.1585 95.6798 71.8528 103.36 81.3107 103.36C90.7687 103.36 98.463 95.6798 98.463 86.2392C98.463 76.7997 90.7676 69.1195 81.3107 69.1195ZM43.818 75.8706L46.2803 83.652C45.7963 84.0371 45.3832 84.4995 45.0617 85.0315L44.8263 84.9956C44.8284 84.8901 44.8426 84.7868 44.8426 84.6812C44.8426 81.7556 44.1014 79.0019 42.7999 76.5908L43.818 75.8706ZM50.3406 87.695C50.3406 88.1574 49.9634 88.5338 49.5002 88.5338C49.0369 88.5338 48.6598 88.1574 48.6598 87.695C48.6598 87.2326 49.0369 86.8561 49.5002 86.8561C49.7291 86.8561 49.9351 86.9486 50.0866 87.0977C50.0964 87.1085 50.1018 87.1216 50.1117 87.1314C50.1128 87.1325 50.1138 87.1336 50.1149 87.1347C50.2523 87.2837 50.3406 87.4785 50.3406 87.695ZM39.1942 79.1346C39.9627 80.7155 40.4139 82.4726 40.4641 84.332L33.3616 83.2505L39.1942 79.1346ZM27.6893 97.4489C20.6359 97.4489 14.897 91.7206 14.897 84.6801C14.897 77.6397 20.6359 71.9114 27.6893 71.9114C31.1816 71.9114 34.3492 73.3192 36.66 75.591L26.4303 82.8099C25.7044 83.3223 25.3632 84.2232 25.567 85.087C25.7709 85.9509 26.4805 86.6037 27.3601 86.7375L39.8439 88.6383C38.1707 93.7464 33.3584 97.4489 27.6893 97.4489ZM53.7926 80.8058C53.9223 79.7689 53.2934 78.7603 52.2568 78.4524C51.1646 78.1249 50.0256 78.7037 49.6168 79.745L47.5556 73.2333L50.7482 70.98L66.6938 68.9814L53.7926 80.8058ZM81.3107 99.008C74.2573 99.008 68.5185 93.2797 68.5185 86.2392C68.5185 81.65 70.9655 77.6299 74.617 75.3788L79.2855 87.0454C79.6267 87.8973 80.4453 88.4152 81.3107 88.4152C81.58 88.4152 81.8535 88.3652 82.1184 88.2596C83.2368 87.8136 83.7807 86.5482 83.3349 85.4319L78.6599 73.7501C79.5155 73.5695 80.4006 73.4705 81.3096 73.4705C88.363 73.4705 94.1019 79.1988 94.1019 86.2381C94.103 93.2797 88.3641 99.008 81.3107 99.008Z" fill="#5355FA"/>
<path d="M54.5 49.973C66.7789 49.973 76.7687 40.0014 76.7687 27.7451C76.7687 15.4888 66.7789 5.51727 54.5 5.51727C42.2212 5.51727 32.2313 15.4888 32.2313 27.7451C32.2313 40.0014 42.2212 49.973 54.5 49.973ZM54.5 9.86927C64.3754 9.86927 72.4087 17.8878 72.4087 27.7451C72.4087 37.6024 64.3754 45.621 54.5 45.621C44.6246 45.621 36.5913 37.6024 36.5913 27.7451C36.5913 17.8878 44.6246 9.86927 54.5 9.86927Z" fill="#5355FA"/>
<path d="M43.9924 22.3976H65.0076C66.211 22.3976 67.1876 21.4227 67.1876 20.2216C67.1876 19.0204 66.211 18.0456 65.0076 18.0456H43.9924C42.789 18.0456 41.8124 19.0204 41.8124 20.2216C41.8124 21.4227 42.789 22.3976 43.9924 22.3976Z" fill="#5355FA"/>
<path d="M46.5168 24.7161C45.3135 24.7161 44.3368 25.6909 44.3368 26.8921V29.1388C44.3368 30.3399 45.3135 31.3148 46.5168 31.3148C47.7202 31.3148 48.6968 30.3399 48.6968 29.1388V26.8921C48.6968 25.6898 47.7213 24.7161 46.5168 24.7161Z" fill="#5355FA"/>
<path d="M62.4832 24.7161C61.2798 24.7161 60.3032 25.6909 60.3032 26.8921V29.1388C60.3032 30.3399 61.2798 31.3148 62.4832 31.3148C63.6865 31.3148 64.6632 30.3399 64.6632 29.1388V26.8921C64.6632 25.6898 63.6865 24.7161 62.4832 24.7161Z" fill="#5355FA"/>
<path d="M54.5 24.7161C53.2966 24.7161 52.32 25.6909 52.32 26.8921V29.1388C52.32 30.3399 53.2966 31.3148 54.5 31.3148C55.7034 31.3148 56.68 30.3399 56.68 29.1388V26.8921C56.68 25.6898 55.7034 24.7161 54.5 24.7161Z" fill="#5355FA"/>
<path d="M46.5168 33.4332C45.3135 33.4332 44.3368 34.408 44.3368 35.6092V37.8559C44.3368 39.057 45.3135 40.0319 46.5168 40.0319C47.7202 40.0319 48.6968 39.057 48.6968 37.8559V35.6092C48.6968 34.408 47.7213 33.4332 46.5168 33.4332Z" fill="#5355FA"/>
<path d="M62.4832 33.4332C61.2798 33.4332 60.3032 34.408 60.3032 35.6092V37.8559C60.3032 39.057 61.2798 40.0319 62.4832 40.0319C63.6865 40.0319 64.6632 39.057 64.6632 37.8559V35.6092C64.6632 34.408 63.6865 33.4332 62.4832 33.4332Z" fill="#5355FA"/>
<path d="M54.5 33.4332C53.2966 33.4332 52.32 34.408 52.32 35.6092V37.8559C52.32 39.057 53.2966 40.0319 54.5 40.0319C55.7034 40.0319 56.68 39.057 56.68 37.8559V35.6092C56.68 34.408 55.7034 33.4332 54.5 33.4332Z" fill="#5355FA"/>
</svg>
