<svg xmlns="http://www.w3.org/2000/svg" viewBox="0 0 325 210.92"><defs><style>.cls-1{fill:#fff;}</style></defs><title>Asset 1</title><g id="Layer_2" data-name="Layer 2"><g id="Calque_1" data-name="Calque 1"><path class="cls-1" d="M104.9,59.9a61.32,61.32,0,0,1-7.4-.5,25.53,25.53,0,0,1-6.7-1.8A12.43,12.43,0,0,1,86,53.9a9.82,9.82,0,0,1-1.8-6.2V1.2H99.1V24.6l-2.5-4.7a8.73,8.73,0,0,1,3.8-3.3,16.1,16.1,0,0,1,4.7-1.5,25.79,25.79,0,0,1,3.9-.4c6.2,0,10.9,1.9,14.2,5.6s5,9.5,5,17.1a27.78,27.78,0,0,1-1.6,10.3,16.49,16.49,0,0,1-4.6,7,18.67,18.67,0,0,1-7.3,4A36.05,36.05,0,0,1,104.9,59.9Zm0-12.5a8.75,8.75,0,0,0,4.5-1,7,7,0,0,0,2.8-3.1,10.84,10.84,0,0,0,.9-5,18.86,18.86,0,0,0-1.2-7.4,7.05,7.05,0,0,0-3.1-3.5,8.57,8.57,0,0,0-4.1-1,13.33,13.33,0,0,0-2.8.3,7.94,7.94,0,0,0-2.7,1V43.6a3.25,3.25,0,0,0,2.6,3.4A10.12,10.12,0,0,0,104.9,47.4Z"/><path class="cls-1" d="M144.1,11V0h15.6V11Zm.1,47.7V16.8h15.2l.2,41.8Z"/><path class="cls-1" d="M193.2,58.7H178.1V0h15.3ZM190,35.9,204.4,16h18.4L199.6,42.2Zm12.2-7.2,20.8,30H203.9L191.3,39.2Z"/><path class="cls-1" d="M254.3,59.9a23.7,23.7,0,0,1-11.7-2.7,19.5,19.5,0,0,1-8-7.6,22.76,22.76,0,0,1-2.9-11.4c0-7.5,1.9-13.3,5.7-17.6s9.4-6.3,16.6-6.3c4.8,0,8.6,1,11.6,3a17.87,17.87,0,0,1,6.6,9.1,48.35,48.35,0,0,1,2.1,15.1H242.6l-2-9h20.7l-1.6,5.2q0-7.05-1.5-9.6a4.78,4.78,0,0,0-4.8-2.6,5.71,5.71,0,0,0-3.1,1,7.34,7.34,0,0,0-2.4,3.4,16.38,16.38,0,0,0-.9,6.2c0,3.6.9,6.4,2.6,8.4s4.7,2.9,8.9,2.9a15.93,15.93,0,0,0,4.3-.6,39.59,39.59,0,0,0,4.1-1.3,22.21,22.21,0,0,1,3.2-1V57a51.24,51.24,0,0,1-6.7,1.9A31,31,0,0,1,254.3,59.9Z"/><path class="cls-1" d="M166.2,130.6c-5.7,0-9.9-1.3-12.5-3.8s-3.9-6.1-3.9-10.6v-19h-5.7V85.8h5.7V74.2h16.1V85.8h8.7V97.1h-8.7v17.6a2.81,2.81,0,0,0,.9,2.3,3.85,3.85,0,0,0,2.6.8,6.6,6.6,0,0,0,2.7-.6,13.5,13.5,0,0,0,2.6-1.5v12.8a15.21,15.21,0,0,1-4.2,1.6A33.4,33.4,0,0,1,166.2,130.6Z"/><path class="cls-1" d="M211.8,129.7a24.84,24.84,0,0,1-11.7-2.7,19.5,19.5,0,0,1-8-7.6,22.67,22.67,0,0,1-2.8-11.4c0-7.5,1.9-13.3,5.7-17.6s9.4-6.3,16.6-6.3c4.8,0,8.6,1,11.6,3a17.87,17.87,0,0,1,6.6,9.1,48.35,48.35,0,0,1,2.1,15.1H200.1l-2-9h20.7l-1.6,5.2c-.1-4.6-.5-7.8-1.5-9.6a4.78,4.78,0,0,0-4.8-2.6,5.71,5.71,0,0,0-3.1,1,7.07,7.07,0,0,0-2.4,3.3,16.38,16.38,0,0,0-.9,6.2c0,3.6.9,6.4,2.6,8.4s4.7,2.9,8.9,2.9a15.93,15.93,0,0,0,4.3-.6c1.4-.4,2.8-.8,4.1-1.3a26.89,26.89,0,0,1,3.2-1V127a51.24,51.24,0,0,1-6.7,1.9A40.52,40.52,0,0,1,211.8,129.7Z"/><path class="cls-1" d="M260.6,129.7a25.72,25.72,0,0,1-7.8-1c-2.2-.7-4.2-1.3-5.9-1.9V113.9a16.94,16.94,0,0,0,3.6,2.3,22.82,22.82,0,0,0,5.1,2.1,20.29,20.29,0,0,0,6,.9c1.6,0,2.6-.2,3-.7a2.27,2.27,0,0,0,.6-1.6,2,2,0,0,0-1.2-1.7,11.8,11.8,0,0,0-3.3-1.2,29.71,29.71,0,0,0-4.3-.8,10.92,10.92,0,0,1-3.6-1.2,9.61,9.61,0,0,1-3.2-2.5,12.94,12.94,0,0,1-2.3-3.9,14.47,14.47,0,0,1-.8-5.4,14.65,14.65,0,0,1,1.7-7.4,14.45,14.45,0,0,1,4.5-4.7,18.64,18.64,0,0,1,6-2.5,25.64,25.64,0,0,1,6.2-.7,39.85,39.85,0,0,1,9.1,1.2,21.37,21.37,0,0,1,5.5,2.6l.1,11.3c-1.8-1-3.7-2-5.6-3a15.6,15.6,0,0,0-6.7-1.5c-2.1,0-3.4.3-4,.8a2.52,2.52,0,0,0-.9,2,2.44,2.44,0,0,0,.8,2,5.29,5.29,0,0,0,2.1,1.1,20.16,20.16,0,0,0,2.9.8c1.4.3,2.8.7,4.3,1.1a13.52,13.52,0,0,1,4.2,2,8.82,8.82,0,0,1,3.2,3.7,14.05,14.05,0,0,1,1.2,6.4,12.65,12.65,0,0,1-3,8.5,15.63,15.63,0,0,1-7.4,4.4A31.62,31.62,0,0,1,260.6,129.7Z"/><path class="cls-1" d="M316.6,130.6c-5.7,0-9.9-1.3-12.5-3.8s-3.9-6.1-3.9-10.6v-19h-5.7V85.8h5.7V74.2h16.1V85.8H325V97.1h-8.7v17.6a2.54,2.54,0,0,0,.9,2.3,4.38,4.38,0,0,0,2.5.8,6.6,6.6,0,0,0,2.7-.6,13.5,13.5,0,0,0,2.6-1.5v12.8a12.61,12.61,0,0,1-4.2,1.6A30.06,30.06,0,0,1,316.6,130.6Z"/><path class="cls-1" d="M100.1,192.6a23,23,0,0,1-9.6-2.7,15.27,15.27,0,0,1-6.5-6.8c-1.6-3-2.3-6.9-2.3-11.7a35,35,0,0,1,1.6-11.6,16.09,16.09,0,0,1,4.9-7.4,19.93,19.93,0,0,1,8-3.9,51,51,0,0,1,11.1-1.2,27.7,27.7,0,0,1,9.9,1.5,13.81,13.81,0,0,1,6.2,4.1,9.59,9.59,0,0,1,2.1,6.3v32.2a21.23,21.23,0,0,1-1.7,9,15.86,15.86,0,0,1-4.9,6,20.3,20.3,0,0,1-7.3,3.4,35.65,35.65,0,0,1-9.2,1.1,56.13,56.13,0,0,1-10.8-.8,18.54,18.54,0,0,1-6.5-2.2V194.6a27.81,27.81,0,0,0,4,1.6,43.38,43.38,0,0,0,6.2,1.6,38.1,38.1,0,0,0,6.7.7,11.34,11.34,0,0,0,5.1-1,5.46,5.46,0,0,0,2.7-2.7,8.93,8.93,0,0,0,.8-4.3v-7.1l2.7,1.6a23.39,23.39,0,0,1-2.9,4.1,9.31,9.31,0,0,1-4.1,2.6A21.63,21.63,0,0,1,100.1,192.6Zm4.6-11a12.42,12.42,0,0,0,3.3-.4,13.89,13.89,0,0,0,2.6-1V162.8a3.07,3.07,0,0,0-.8-2.4,5.12,5.12,0,0,0-2.1-1,11.71,11.71,0,0,0-2.6-.4,7.25,7.25,0,0,0-7.4,5.2,21,21,0,0,0-.9,6.1c0,3.5.8,6.3,2.4,8.2a6.84,6.84,0,0,0,5.5,3.1Z"/><path class="cls-1" d="M136.8,191.3V153.6a17.34,17.34,0,0,1,4.3-2.7,51.66,51.66,0,0,1,6.9-2.6,27.78,27.78,0,0,1,7.5-1.1,32.94,32.94,0,0,1,8.3.8,11.56,11.56,0,0,1,4.4,1.9v10.8a18.57,18.57,0,0,0-3.4-.6c-1.5-.2-3.1-.3-4.7-.4s-3.2-.1-4.7-.1a20,20,0,0,0-3.4.2v31.6H136.8Z"/><path class="cls-1" d="M187.8,207.8a27.15,27.15,0,0,1-4.9-.5,21.34,21.34,0,0,1-4.3-1.3V193.9c1,.3,2,.6,3,.8a21.05,21.05,0,0,0,2.5.2,7.11,7.11,0,0,0,3.2-.7,5,5,0,0,0,2.4-2.9A19.68,19.68,0,0,0,191,185l.4,9.1L173,148.7h17.4l7.9,27.2H197l7.7-27.2h16.5l-16.1,41.8a42,42,0,0,1-5.2,10.1,18.31,18.31,0,0,1-5.9,5.5A11.27,11.27,0,0,1,187.8,207.8Z"/><path class="cls-1" d="M247.7,192.6q-11.1,0-16.8-5.7c-3.8-3.8-5.6-9.5-5.6-17.2,0-8.3,1.9-14.2,5.6-17.6s9.4-5.1,16.8-5.1a31.26,31.26,0,0,1,12.4,2.2,15.43,15.43,0,0,1,7.7,7.2c1.8,3.3,2.6,7.8,2.6,13.3,0,7.7-2,13.4-5.9,17.2S255,192.6,247.7,192.6Zm0-11.9a8,8,0,0,0,4-1.1,7.51,7.51,0,0,0,2.7-3.6,16.66,16.66,0,0,0,1-6.3,18.58,18.58,0,0,0-1-7,5.7,5.7,0,0,0-2.7-3.2,10.11,10.11,0,0,0-8,0,5.38,5.38,0,0,0-2.5,3.2,20.68,20.68,0,0,0-.8,7c0,4,.6,6.8,1.9,8.5A6.5,6.5,0,0,0,247.7,180.7Z"/><path class="cls-1" d="M280.1,152.3a19.22,19.22,0,0,1,4.2-1.6c1.9-.6,3.9-1.1,6.2-1.6s4.6-.9,7-1.3a44.82,44.82,0,0,1,6.4-.5,31.56,31.56,0,0,1,9.7,1.3,11.9,11.9,0,0,1,6.5,4.5c1.6,2.2,2.4,5.2,2.4,9.1v29.1H307.2V165.9a7.1,7.1,0,0,0-.5-2.9,4.31,4.31,0,0,0-1.3-1.9,5.7,5.7,0,0,0-2.2-1.1,15.26,15.26,0,0,0-3-.3,10.59,10.59,0,0,0-3.1.5,3.58,3.58,0,0,0-1.8.9v30.2H280.1v-39Z"/><path class="cls-1" d="M45,79.4h86.9a2.22,2.22,0,0,1,2.2,2.2v1.7a2.22,2.22,0,0,1-2.2,2.2H45a2.22,2.22,0,0,1-2.2-2.2V81.6A2.22,2.22,0,0,1,45,79.4Z"/><path class="cls-1" d="M2.2,93.2H116a2.22,2.22,0,0,1,2.2,2.2v1.7a2.22,2.22,0,0,1-2.2,2.2H2.2A2.22,2.22,0,0,1,0,97.1V95.4A2.22,2.22,0,0,1,2.2,93.2Z"/><path class="cls-1" d="M63.8,107H128a2.22,2.22,0,0,1,2.2,2.2v1.7a2.22,2.22,0,0,1-2.2,2.2H63.8a2.22,2.22,0,0,1-2.2-2.2v-1.7A2.22,2.22,0,0,1,63.8,107Z"/><path class="cls-1" d="M34.1,120.8H137.5a2.22,2.22,0,0,1,2.2,2.2v1.7a2.22,2.22,0,0,1-2.2,2.2H34.1a2.22,2.22,0,0,1-2.2-2.2V123A2.22,2.22,0,0,1,34.1,120.8Z"/></g></g></svg>