<?xml version="1.0" encoding="utf-8"?>
<!-- Generator: Adobe Illustrator 24.2.0, SVG Export Plug-In . SVG Version: 6.00 Build 0)  -->
<svg version="1.1" id="Calque_1" xmlns="http://www.w3.org/2000/svg" xmlns:xlink="http://www.w3.org/1999/xlink" x="0px" y="0px"
	 viewBox="0 0 325 210.8" style="enable-background:new 0 0 325 210.8;" xml:space="preserve">
<path d="M104.9,59.9c-2.5,0-4.9-0.2-7.4-0.5c-2.3-0.3-4.6-0.9-6.7-1.8c-1.9-0.8-3.5-2.1-4.8-3.7c-1.3-1.8-1.9-4-1.8-6.2V1.2h14.9
	v23.4l-2.5-4.7c0.9-1.4,2.2-2.6,3.8-3.3c1.5-0.7,3.1-1.3,4.7-1.5c1.3-0.2,2.6-0.4,3.9-0.4c6.2,0,10.9,1.9,14.2,5.6
	c3.3,3.8,5,9.5,5,17.1c0.1,3.5-0.4,7-1.6,10.3c-0.9,2.7-2.5,5.1-4.6,7c-2.1,1.9-4.6,3.2-7.3,4C111.5,59.5,108.2,60,104.9,59.9z
	 M104.9,47.4c1.6,0.1,3.1-0.3,4.5-1c1.2-0.7,2.2-1.8,2.8-3.1c0.7-1.6,1-3.3,0.9-5c0.1-2.5-0.3-5-1.2-7.4c-0.6-1.5-1.7-2.7-3.1-3.5
	c-1.3-0.7-2.7-1-4.1-1c-0.9,0-1.9,0.1-2.8,0.3c-1,0.2-1.9,0.5-2.7,1v15.9c-0.1,1.6,1,3.1,2.6,3.4C102.7,47.3,103.8,47.4,104.9,47.4z
	"/>
<path d="M144.1,11V0h15.6v11H144.1z M144.2,58.7V16.8h15.2l0.2,41.8L144.2,58.7z"/>
<path d="M193.2,58.7h-15.1V0h15.3L193.2,58.7z M190,35.9L204.4,16h18.4l-23.2,26.2L190,35.9z M202.2,28.7l20.8,30h-19.1l-12.6-19.5
	L202.2,28.7z"/>
<path d="M254.3,59.9c-4.1,0.1-8.1-0.8-11.7-2.7c-3.3-1.7-6.1-4.3-8-7.6c-2-3.5-2.9-7.4-2.9-11.4c0-7.5,1.9-13.3,5.7-17.6
	s9.4-6.3,16.6-6.3c4.8,0,8.6,1,11.6,3c3.1,2.2,5.4,5.4,6.6,9.1c1.5,4.9,2.2,10,2.1,15.1h-31.7l-2-9h20.7l-1.6,5.2
	c0-4.7-0.5-7.9-1.5-9.6c-0.9-1.8-2.8-2.8-4.8-2.6c-1.1,0-2.2,0.4-3.1,1c-1.1,0.9-2,2.1-2.4,3.4c-0.7,2-1,4.1-0.9,6.2
	c0,3.6,0.9,6.4,2.6,8.4s4.7,2.9,8.9,2.9c1.4,0,2.9-0.2,4.3-0.6c1.5-0.4,2.8-0.8,4.1-1.3s2.3-0.8,3.2-1v12.5
	c-2.2,0.8-4.4,1.4-6.7,1.9C260.4,59.7,257.4,60,254.3,59.9z"/>
<path d="M166.2,130.6c-5.7,0-9.9-1.3-12.5-3.8c-2.6-2.5-3.9-6.1-3.9-10.6v-19h-5.7V85.8h5.7V74.2h16.1v11.6h8.7v11.3h-8.7v17.6
	c-0.1,0.9,0.3,1.7,0.9,2.3c0.7,0.6,1.6,0.8,2.6,0.8c0.9,0,1.8-0.2,2.7-0.6c0.9-0.4,1.8-0.9,2.6-1.5v12.8c-1.3,0.7-2.7,1.3-4.2,1.6
	C169,130.4,167.6,130.5,166.2,130.6z"/>
<path d="M211.8,129.7c-4.1,0.1-8.1-0.9-11.7-2.7c-3.3-1.7-6.1-4.3-8-7.6c-1.9-3.5-2.9-7.4-2.8-11.4c0-7.5,1.9-13.3,5.7-17.6
	c3.8-4.2,9.4-6.3,16.6-6.3c4.8,0,8.6,1,11.6,3c3.1,2.2,5.4,5.4,6.6,9.1c1.5,4.9,2.2,10,2.1,15.1h-31.8l-2-9h20.7l-1.6,5.2
	c-0.1-4.6-0.5-7.8-1.5-9.6c-0.9-1.8-2.8-2.8-4.8-2.6c-1.1,0-2.2,0.4-3.1,1c-1.1,0.9-2,2-2.4,3.3c-0.7,2-1,4.1-0.9,6.2
	c0,3.6,0.9,6.4,2.6,8.4c1.7,2,4.7,2.9,8.9,2.9c1.4,0,2.9-0.2,4.3-0.6c1.4-0.4,2.8-0.8,4.1-1.3s2.4-0.8,3.2-1V127
	c-2.2,0.8-4.4,1.4-6.7,1.9C217.8,129.5,214.8,129.8,211.8,129.7z"/>
<path d="M260.6,129.7c-2.6,0.1-5.3-0.3-7.8-1c-2.2-0.7-4.2-1.3-5.9-1.9v-12.9c1.1,0.9,2.3,1.7,3.6,2.3c1.6,0.9,3.3,1.6,5.1,2.1
	c1.9,0.6,4,0.9,6,0.9c1.6,0,2.6-0.2,3-0.7c0.4-0.4,0.6-1,0.6-1.6c-0.1-0.8-0.5-1.4-1.2-1.7c-1-0.5-2.1-1-3.3-1.2
	c-1.4-0.4-2.8-0.6-4.3-0.8c-1.3-0.2-2.5-0.6-3.6-1.2c-1.2-0.6-2.3-1.4-3.2-2.5c-1-1.2-1.8-2.5-2.3-3.9c-0.6-1.8-0.9-3.6-0.8-5.4
	c-0.1-2.6,0.5-5.1,1.7-7.4c1.1-1.9,2.7-3.5,4.5-4.7c1.8-1.2,3.9-2,6-2.5c2-0.5,4.1-0.7,6.2-0.7c3.1,0,6.1,0.5,9.1,1.2
	c2,0.6,3.8,1.5,5.5,2.6l0.1,11.3c-1.8-1-3.7-2-5.6-3c-2.1-1-4.4-1.5-6.7-1.5c-2.1,0-3.4,0.3-4,0.8c-0.6,0.5-0.9,1.2-0.9,2
	c0,0.8,0.2,1.5,0.8,2c0.6,0.5,1.3,0.9,2.1,1.1c0.9,0.3,1.8,0.6,2.9,0.8c1.4,0.3,2.8,0.7,4.3,1.1c1.5,0.4,2.9,1.1,4.2,2
	c1.4,0.9,2.5,2.2,3.2,3.7c0.9,2,1.3,4.2,1.2,6.4c0.1,3.1-1,6.1-3,8.5c-2,2.1-4.6,3.7-7.4,4.4C267.4,129.3,264,129.8,260.6,129.7z"/>
<path d="M316.6,130.6c-5.7,0-9.9-1.3-12.5-3.8c-2.6-2.5-3.9-6.1-3.9-10.6v-19h-5.7V85.8h5.7V74.2h16.1v11.6h8.7v11.3h-8.7v17.6
	c-0.1,0.9,0.2,1.7,0.9,2.3c0.7,0.5,1.6,0.8,2.5,0.8c0.9,0,1.8-0.2,2.7-0.6c0.9-0.4,1.8-0.9,2.6-1.5v12.8c-1.3,0.8-2.7,1.3-4.2,1.6
	C319.4,130.4,318,130.5,316.6,130.6z"/>
<path d="M100.1,192.6c-3.4-0.2-6.6-1.1-9.6-2.7c-2.8-1.5-5.1-3.9-6.5-6.8c-1.6-3-2.3-6.9-2.3-11.7c-0.1-3.9,0.4-7.9,1.6-11.6
	c0.9-2.9,2.6-5.4,4.9-7.4c2.3-1.9,5.1-3.2,8-3.9c3.6-0.8,7.3-1.2,11.1-1.2c3.4-0.1,6.7,0.4,9.9,1.5c2.4,0.8,4.6,2.2,6.2,4.1
	c1.4,1.8,2.2,4,2.1,6.3v32.2c0.1,3.1-0.5,6.2-1.7,9c-1.1,2.4-2.8,4.4-4.9,6c-2.2,1.6-4.7,2.8-7.3,3.4c-3,0.8-6.1,1.1-9.2,1.1
	c-3.6,0.1-7.2-0.2-10.8-0.8c-2.3-0.3-4.5-1.1-6.5-2.2v-13.3c1.3,0.6,2.6,1.2,4,1.6c2,0.7,4.1,1.2,6.2,1.6c2.2,0.4,4.5,0.7,6.7,0.7
	c1.7,0.1,3.5-0.3,5.1-1c1.2-0.6,2.2-1.5,2.7-2.7c0.6-1.3,0.9-2.8,0.8-4.3v-7.1l2.7,1.6c-0.8,1.5-1.8,2.8-2.9,4.1
	c-1.1,1.2-2.5,2.1-4.1,2.6C104.3,192.3,102.2,192.6,100.1,192.6z M104.7,181.6c1.1,0,2.2-0.1,3.3-0.4c0.9-0.2,1.7-0.6,2.6-1v-17.4
	c0.1-0.9-0.2-1.7-0.8-2.4c-0.6-0.5-1.3-0.8-2.1-1c-0.9-0.2-1.7-0.4-2.6-0.4c-3.4-0.2-6.5,2-7.4,5.2c-0.6,2-0.9,4-0.9,6.1
	c0,3.5,0.8,6.3,2.4,8.2C100.4,180.4,102.5,181.5,104.7,181.6L104.7,181.6z"/>
<path d="M136.8,191.3v-37.7c1.3-1.1,2.7-2,4.3-2.7c2.2-1,4.5-1.9,6.9-2.6c2.5-0.7,5-1.1,7.5-1.1c2.8-0.1,5.6,0.2,8.3,0.8
	c1.6,0.3,3.1,1,4.4,1.9v10.8c-1.1-0.3-2.2-0.5-3.4-0.6c-1.5-0.2-3.1-0.3-4.7-0.4c-1.7-0.1-3.2-0.1-4.7-0.1c-1.1,0-2.2,0-3.4,0.2
	v31.6H136.8z"/>
<path d="M187.8,207.8c-1.6,0-3.3-0.2-4.9-0.5c-1.5-0.3-2.9-0.7-4.3-1.3v-12.1c1,0.3,2,0.6,3,0.8c0.8,0.1,1.7,0.2,2.5,0.2
	c1.1,0,2.2-0.2,3.2-0.7c1.1-0.6,2-1.6,2.4-2.9c0.8-2,1.2-4.2,1.3-6.3l0.4,9.1l-18.4-45.4h17.4l7.9,27.2h-1.3l7.7-27.2h16.5
	l-16.1,41.8c-1.3,3.6-3,7-5.2,10.1c-1.5,2.2-3.5,4.1-5.9,5.5C192.4,207.2,190.1,207.8,187.8,207.8z"/>
<path d="M247.7,192.6c-7.4,0-13-1.9-16.8-5.7c-3.8-3.8-5.6-9.5-5.6-17.2c0-8.3,1.9-14.2,5.6-17.6s9.4-5.1,16.8-5.1
	c4.2-0.1,8.4,0.6,12.4,2.2c3.3,1.4,6.1,4,7.7,7.2c1.8,3.3,2.6,7.8,2.6,13.3c0,7.7-2,13.4-5.9,17.2S255,192.6,247.7,192.6z
	 M247.7,180.7c1.4,0,2.8-0.4,4-1.1c1.2-0.9,2.2-2.1,2.7-3.6c0.7-2,1.1-4.1,1-6.3c0.1-2.4-0.2-4.7-1-7c-0.5-1.4-1.4-2.5-2.7-3.2
	c-2.5-1.1-5.5-1.1-8,0c-1.2,0.7-2.1,1.8-2.5,3.2c-0.7,2.3-0.9,4.6-0.8,7c0,4,0.6,6.8,1.9,8.5C243.5,179.8,245.6,180.8,247.7,180.7z"
	/>
<path d="M280.1,152.3c1.3-0.7,2.7-1.2,4.2-1.6c1.9-0.6,3.9-1.1,6.2-1.6s4.6-0.9,7-1.3c2.1-0.3,4.2-0.5,6.4-0.5
	c3.3-0.1,6.6,0.4,9.7,1.3c2.6,0.7,4.9,2.3,6.5,4.5c1.6,2.2,2.4,5.2,2.4,9.1v29.1h-15.3v-25.4c0-1-0.1-2-0.5-2.9
	c-0.3-0.8-0.7-1.4-1.3-1.9c-0.6-0.5-1.4-0.9-2.2-1.1c-1-0.2-2-0.3-3-0.3c-1.1,0-2.1,0.2-3.1,0.5c-1,0.3-1.6,0.6-1.8,0.9v30.2h-15.2
	V152.3z"/>
<path d="M45,79.4h86.9c1.2,0,2.2,1,2.2,2.2v1.7c0,1.2-1,2.2-2.2,2.2H45c-1.2,0-2.2-1-2.2-2.2v-1.7C42.8,80.4,43.8,79.4,45,79.4z"/>
<path d="M2.2,93.2h113.8c1.2,0,2.2,1,2.2,2.2v1.7c0,1.2-1,2.2-2.2,2.2H2.2c-1.2,0-2.2-1-2.2-2.2v-1.7C0,94.2,1,93.2,2.2,93.2z"/>
<path d="M63.8,107h64.2c1.2,0,2.2,1,2.2,2.2v1.7c0,1.2-1,2.2-2.2,2.2H63.8c-1.2,0-2.2-1-2.2-2.2v-1.7C61.6,108,62.6,107,63.8,107z"
	/>
<path d="M34.1,120.8h103.4c1.2,0,2.2,1,2.2,2.2v1.7c0,1.2-1,2.2-2.2,2.2H34.1c-1.2,0-2.2-1-2.2-2.2V123
	C31.9,121.8,32.9,120.8,34.1,120.8z"/>
</svg>
