<svg width="100" height="100" viewBox="0 0 100 100" fill="none" xmlns="http://www.w3.org/2000/svg">
<path d="M58.3333 25L55.3333 18.9584C54.625 17.5417 53.1666 16.6667 51.5833 16.6667H25C22.7083 16.6667 20.8333 18.5417 20.8333 20.8334V83.3334C20.8333 85.625 22.7083 87.5 25 87.5C27.2916 87.5 29.1666 85.625 29.1666 83.3334V58.3334H50L53 64.375C53.7083 65.7917 55.1666 66.6667 56.7083 66.6667H79.1666C81.4583 66.6667 83.3333 64.7917 83.3333 62.5V29.1667C83.3333 26.875 81.4583 25 79.1666 25H58.3333ZM75 58.3334H58.3333L54.1666 50H29.1666V25H50L54.1666 33.3334H75V58.3334Z" fill="#5355FA"/>
</svg>
