<svg width="344" height="303" viewBox="0 0 344 303" fill="none" xmlns="http://www.w3.org/2000/svg">
<rect x="1.91724" y="92.9857" width="53.8299" height="204.648" fill="white" stroke="#EFEFEF" stroke-width="3"/>
<line x1="0.417236" y1="246.268" x2="57.2472" y2="246.268" stroke="#EFEFEF" stroke-width="3"/>
<line x1="0.417236" y1="194.174" x2="57.2472" y2="194.174" stroke="#EFEFEF" stroke-width="3"/>
<line x1="0.417236" y1="142.08" x2="57.2472" y2="142.08" stroke="#EFEFEF" stroke-width="3"/>
<rect x="116.67" y="93.35" width="53.8299" height="204.648" fill="white" stroke="#EFEFEF" stroke-width="3"/>
<line x1="115.17" y1="246.633" x2="172" y2="246.633" stroke="#EFEFEF" stroke-width="3"/>
<line x1="115.17" y1="194.538" x2="172" y2="194.538" stroke="#EFEFEF" stroke-width="3"/>
<line x1="115.17" y1="142.444" x2="172" y2="142.444" stroke="#EFEFEF" stroke-width="3"/>
<rect x="169.151" y="93.35" width="53.8299" height="204.648" fill="white" stroke="#EFEFEF" stroke-width="3"/>
<line x1="167.651" y1="246.632" x2="224.481" y2="246.632" stroke="#EFEFEF" stroke-width="3"/>
<line x1="167.651" y1="194.538" x2="224.481" y2="194.538" stroke="#EFEFEF" stroke-width="3"/>
<line x1="167.651" y1="142.444" x2="224.481" y2="142.444" stroke="#EFEFEF" stroke-width="3"/>
<rect x="288.253" y="96.4348" width="53.8299" height="204.648" fill="white" stroke="#EFEFEF" stroke-width="3"/>
<line x1="286.753" y1="249.717" x2="343.583" y2="249.717" stroke="#EFEFEF" stroke-width="3"/>
<line x1="286.753" y1="197.623" x2="343.583" y2="197.623" stroke="#EFEFEF" stroke-width="3"/>
<line x1="286.753" y1="145.529" x2="343.583" y2="145.529" stroke="#EFEFEF" stroke-width="3"/>
<rect x="253.195" y="2.08289" width="53.8299" height="251.278" transform="rotate(90 253.195 2.08289)" fill="white" stroke="#EFEFEF" stroke-width="3"/>
<line x1="58.7473" y1="0.582764" x2="58.7472" y2="57.4127" stroke="#EFEFEF" stroke-width="3"/>
<line x1="109.02" y1="0.582764" x2="109.02" y2="57.4127" stroke="#EFEFEF" stroke-width="3"/>
<line x1="157.471" y1="0.582764" x2="157.471" y2="57.4127" stroke="#EFEFEF" stroke-width="3"/>
<line x1="207.744" y1="0.582764" x2="207.744" y2="57.4127" stroke="#EFEFEF" stroke-width="3"/>
<mask id="path-22-outside-1" maskUnits="userSpaceOnUse" x="248.463" y="0.659054" width="95" height="101" fill="black">
<rect fill="white" x="248.463" y="0.659054" width="95" height="101"/>
<path fill-rule="evenodd" clip-rule="evenodd" d="M319.679 30.052C332.604 44.5401 341.412 66.2272 340.382 97.9826L290.321 97.9825C291.92 89.2447 291.227 75.6383 282.792 65.8997L319.679 30.052ZM319.007 29.31C299.163 7.68095 270.046 2.54407 251.688 3.84757L251.688 54.131C266.563 54.131 276.147 58.7065 282.124 65.1544L319.007 29.31Z"/>
</mask>
<path fill-rule="evenodd" clip-rule="evenodd" d="M319.679 30.052C332.604 44.5401 341.412 66.2272 340.382 97.9826L290.321 97.9825C291.92 89.2447 291.227 75.6383 282.792 65.8997L319.679 30.052ZM319.007 29.31C299.163 7.68095 270.046 2.54407 251.688 3.84757L251.688 54.131C266.563 54.131 276.147 58.7065 282.124 65.1544L319.007 29.31Z" fill="white"/>
<path d="M340.382 97.9826L340.382 100.983L343.286 100.983L343.38 98.0798L340.382 97.9826ZM319.679 30.052L321.917 28.0548L319.833 25.7187L317.588 27.9006L319.679 30.052ZM290.321 97.9825L287.37 97.4427L286.723 100.983L290.321 100.983L290.321 97.9825ZM282.792 65.8997L280.701 63.7483L278.67 65.7226L280.524 67.8638L282.792 65.8997ZM319.007 29.31L321.098 31.4614L323.189 29.4298L321.218 27.2818L319.007 29.31ZM251.688 3.84757L251.475 0.855106L248.688 1.05304L248.688 3.84757L251.688 3.84757ZM251.688 54.131L248.688 54.131L248.688 57.131L251.688 57.131L251.688 54.131ZM282.124 65.1544L279.924 67.1939L282.012 69.4464L284.215 67.3058L282.124 65.1544ZM343.38 98.0798C344.431 65.6883 335.438 43.2102 321.917 28.0548L317.44 32.0492C329.771 45.87 338.392 66.7661 337.383 97.8853L343.38 98.0798ZM290.321 100.983L340.382 100.983L340.382 94.9826L290.321 94.9825L290.321 100.983ZM280.524 67.8638C288.131 76.6458 288.882 89.1793 287.37 97.4427L293.272 98.5224C294.958 89.3101 294.323 74.6307 285.06 63.9356L280.524 67.8638ZM317.588 27.9006L280.701 63.7483L284.883 68.0511L321.77 32.2034L317.588 27.9006ZM321.218 27.2818C300.557 4.76226 270.406 -0.489042 251.475 0.855106L251.9 6.84004C269.686 5.57719 297.77 10.5997 316.797 31.3381L321.218 27.2818ZM248.688 3.84757L248.688 54.131L254.688 54.131L254.688 3.84757L248.688 3.84757ZM251.688 57.131C265.911 57.131 274.627 61.4804 279.924 67.1939L284.324 63.1148C277.666 55.9326 267.216 51.131 251.688 51.131L251.688 57.131ZM284.215 67.3058L321.098 31.4614L316.917 27.1586L280.033 63.003L284.215 67.3058Z" fill="#EFEFEF" mask="url(#path-22-outside-1)"/>
<path d="M27.3234 257.583C19.3152 257.583 12.8234 264.075 12.8234 272.083C12.8234 280.091 19.3152 286.583 27.3234 286.583C35.3316 286.583 41.8234 280.091 41.8234 272.083C41.8234 264.075 35.3316 257.583 27.3234 257.583ZM27.3234 262.919C28.7469 262.919 29.9011 264.074 29.9011 265.497C29.9011 266.921 28.7469 268.075 27.3234 268.075C25.8998 268.075 24.7456 266.921 24.7456 265.497C24.7456 264.074 25.8998 262.919 27.3234 262.919ZM31.19 280.602C31.19 280.957 30.9013 281.105 30.5456 281.105H24.1011C23.7454 281.105 23.4567 280.957 23.4567 280.602V280.279C23.4567 279.923 23.7454 279.494 24.1011 279.494H24.7456V271.438H24.1011C23.7454 271.438 23.4567 271.291 23.4567 270.935V270.613C23.4567 270.257 23.7454 269.827 24.1011 269.827H29.2567C29.6124 269.827 29.9011 270.257 29.9011 270.613V270.935V279.494H30.5456C30.9013 279.494 31.19 279.923 31.19 280.279V280.602Z" fill="#6C6B6B"/>
<path d="M85.8634 33.5828H83.3234V23.7917L80.2912 24.7322V22.6667L85.591 20.7683H85.8634V33.5828Z" fill="#6C6B6B"/>
<path d="M138.465 33.5828H129.694V31.8425L133.833 27.4304C134.402 26.8093 134.82 26.2673 135.09 25.8044C135.365 25.3416 135.503 24.9021 135.503 24.4861C135.503 23.9177 135.36 23.4724 135.072 23.1501C134.785 22.822 134.375 22.658 133.842 22.658C133.268 22.658 132.814 22.8572 132.48 23.2556C132.152 23.6482 131.987 24.1667 131.987 24.8113H129.439C129.439 24.032 129.623 23.3201 129.992 22.6755C130.367 22.031 130.895 21.5271 131.574 21.1638C132.254 20.7947 133.025 20.6101 133.886 20.6101C135.204 20.6101 136.227 20.9265 136.953 21.5593C137.686 22.1921 138.052 23.0857 138.052 24.24C138.052 24.8728 137.888 25.5173 137.56 26.1736C137.232 26.8298 136.669 27.5945 135.872 28.4675L132.963 31.5349H138.465V33.5828Z" fill="#6C6B6B"/>
<path d="M180.277 26.0593H181.631C182.276 26.0593 182.753 25.8982 183.064 25.5759C183.374 25.2537 183.529 24.8259 183.529 24.2927C183.529 23.7771 183.374 23.3757 183.064 23.0886C182.759 22.8015 182.337 22.658 181.798 22.658C181.312 22.658 180.904 22.7927 180.576 23.0623C180.248 23.3259 180.084 23.6716 180.084 24.0994H177.544C177.544 23.4314 177.723 22.8337 178.08 22.3064C178.444 21.7732 178.947 21.3572 179.592 21.0583C180.242 20.7595 180.957 20.6101 181.736 20.6101C183.09 20.6101 184.151 20.9353 184.918 21.5857C185.686 22.2302 186.069 23.1208 186.069 24.2576C186.069 24.8435 185.891 25.3826 185.533 25.8748C185.176 26.3669 184.707 26.7449 184.127 27.0085C184.848 27.2664 185.384 27.6531 185.736 28.1687C186.093 28.6843 186.272 29.2937 186.272 29.9968C186.272 31.1335 185.856 32.0447 185.024 32.7302C184.197 33.4158 183.102 33.7585 181.736 33.7585C180.459 33.7585 179.413 33.4216 178.599 32.7478C177.79 32.074 177.386 31.1833 177.386 30.0759H179.926C179.926 30.5564 180.105 30.949 180.462 31.2537C180.825 31.5583 181.271 31.7107 181.798 31.7107C182.402 31.7107 182.873 31.5525 183.213 31.2361C183.559 30.9138 183.732 30.489 183.732 29.9617C183.732 28.6843 183.028 28.0457 181.622 28.0457H180.277V26.0593Z" fill="#6C6B6B"/>
<path d="M232.208 28.7664H233.658V30.8142H232.208V33.5828H229.668V30.8142H224.421L224.307 29.2146L229.642 20.7859H232.208V28.7664ZM226.838 28.7664H229.668V24.2488L229.501 24.5388L226.838 28.7664Z" fill="#6C6B6B"/>
<path d="M272.538 31.1361L276.429 25.8727L282.64 29.4586L281.581 31.293L277.174 28.7486L275.524 30.9728C276.208 30.9954 276.844 31.1767 277.433 31.5165C278.488 32.1259 279.126 32.9308 279.347 33.9311C279.568 34.9314 279.339 36.0201 278.659 37.1974C278.246 37.9129 277.723 38.4669 277.091 38.8594C276.466 39.2498 275.781 39.4397 275.036 39.4292C274.294 39.4135 273.54 39.1845 272.774 38.7421C272.104 38.3554 271.56 37.862 271.142 37.262C270.727 36.657 270.494 36.0116 270.443 35.3261C270.398 34.6434 270.546 33.9816 270.889 33.3407L273.066 34.5975C272.845 35.0857 272.797 35.5382 272.922 35.9552C273.054 36.3701 273.344 36.7064 273.79 36.9642C274.288 37.2513 274.773 37.2949 275.247 37.095C275.724 36.89 276.152 36.4602 276.53 35.8056C276.893 35.1764 277.016 34.6049 276.9 34.0913C276.784 33.5777 276.442 33.1568 275.874 32.8287C275.351 32.5269 274.848 32.4193 274.365 32.5058L274.038 32.5807L272.538 31.1361Z" fill="#6C6B6B"/>
<path d="M322.021 68.8262L320.21 69.8721L320.087 69.659C319.497 68.6732 318.775 68.0209 317.922 67.702C317.071 67.3882 316.163 67.4282 315.2 67.822C316.139 68.065 316.867 68.6355 317.386 69.5337C317.942 70.4978 318.04 71.4632 317.678 72.43C317.316 73.3968 316.571 74.2054 315.445 74.8557C314.724 75.2718 313.981 75.4909 313.216 75.5132C312.454 75.5406 311.745 75.3613 311.089 74.9754C310.436 74.5946 309.902 74.0439 309.486 73.3234C308.812 72.1562 308.673 70.978 309.069 69.7887C309.468 68.6045 310.345 67.6213 311.699 66.839L312.491 66.382C313.694 65.6877 314.885 65.3012 316.064 65.2225C317.251 65.146 318.34 65.3864 319.332 65.9438C320.332 66.5033 321.158 67.3424 321.81 68.4609L322.021 68.8262ZM315.233 69.8834C315.028 69.5282 314.748 69.2602 314.393 69.0793C314.044 68.8955 313.677 68.823 313.293 68.8618L312.624 69.2485C311.888 69.6733 311.395 70.1505 311.146 70.68C310.902 71.2065 310.931 71.7311 311.233 72.2538C311.505 72.7257 311.91 72.9993 312.448 73.0747C312.993 73.1522 313.563 73.0196 314.156 72.6768C314.76 72.3282 315.162 71.8998 315.363 71.3916C315.563 70.8834 315.52 70.3807 315.233 69.8834Z" fill="#6C6B6B"/>
<path d="M319.034 168.187C319.034 168.808 318.879 169.359 318.568 169.839C318.258 170.32 317.83 170.704 317.285 170.991C317.906 171.29 318.399 171.703 318.762 172.23C319.125 172.752 319.307 173.367 319.307 174.076C319.307 175.213 318.92 176.112 318.147 176.774C317.373 177.43 316.321 177.758 314.991 177.758C313.661 177.758 312.607 177.427 311.827 176.765C311.048 176.103 310.658 175.207 310.658 174.076C310.658 173.367 310.84 172.749 311.203 172.221C311.567 171.694 312.056 171.284 312.671 170.991C312.126 170.704 311.698 170.32 311.388 169.839C311.083 169.359 310.931 168.808 310.931 168.187C310.931 167.097 311.294 166.23 312.021 165.586C312.747 164.935 313.734 164.61 314.983 164.61C316.225 164.61 317.209 164.932 317.936 165.577C318.668 166.215 319.034 167.086 319.034 168.187ZM316.758 173.891C316.758 173.335 316.597 172.889 316.275 172.555C315.952 172.221 315.519 172.054 314.974 172.054C314.435 172.054 314.004 172.221 313.682 172.555C313.359 172.883 313.198 173.329 313.198 173.891C313.198 174.436 313.357 174.876 313.673 175.21C313.989 175.544 314.429 175.711 314.991 175.711C315.542 175.711 315.973 175.549 316.283 175.227C316.6 174.905 316.758 174.46 316.758 173.891ZM316.494 168.31C316.494 167.812 316.362 167.414 316.099 167.115C315.835 166.81 315.463 166.658 314.983 166.658C314.508 166.658 314.139 166.804 313.875 167.097C313.611 167.39 313.48 167.795 313.48 168.31C313.48 168.82 313.611 169.23 313.875 169.541C314.139 169.851 314.511 170.006 314.991 170.006C315.472 170.006 315.841 169.851 316.099 169.541C316.362 169.23 316.494 168.82 316.494 168.31Z" fill="#6C6B6B"/>
<path d="M319.395 118.21L314.446 129.583H311.766L316.723 118.843H310.359V116.786H319.395V118.21Z" fill="#6C6B6B"/>
<path d="M316.635 225.468C315.973 226.118 315.199 226.443 314.315 226.443C313.184 226.443 312.278 226.056 311.599 225.283C310.919 224.504 310.579 223.455 310.579 222.136C310.579 221.299 310.761 220.531 311.124 219.834C311.493 219.131 312.006 218.586 312.662 218.199C313.318 217.806 314.057 217.61 314.877 217.61C315.721 217.61 316.471 217.821 317.127 218.243C317.783 218.665 318.293 219.271 318.656 220.062C319.02 220.853 319.204 221.759 319.21 222.778V223.719C319.21 225.851 318.68 227.527 317.619 228.746C316.559 229.965 315.056 230.615 313.11 230.697L312.486 230.706V228.588L313.049 228.579C315.258 228.479 316.453 227.442 316.635 225.468ZM314.939 224.501C315.349 224.501 315.7 224.395 315.993 224.184C316.292 223.973 316.518 223.719 316.67 223.42V222.374C316.67 221.512 316.506 220.844 316.178 220.37C315.85 219.895 315.41 219.658 314.859 219.658C314.35 219.658 313.931 219.892 313.603 220.361C313.275 220.824 313.11 221.407 313.11 222.11C313.11 222.807 313.269 223.382 313.585 223.833C313.907 224.278 314.359 224.501 314.939 224.501Z" fill="#6C6B6B"/>
<path d="M311.863 280.583H309.323V270.792L306.291 271.732V269.667L311.591 267.768H311.863V280.583ZM324.643 275.292C324.643 277.061 324.276 278.415 323.544 279.352C322.812 280.29 321.739 280.759 320.327 280.759C318.933 280.759 317.866 280.299 317.128 279.379C316.39 278.459 316.012 277.14 315.994 275.424V273.068C315.994 271.281 316.363 269.925 317.102 268.999C317.846 268.073 318.915 267.61 320.31 267.61C321.704 267.61 322.771 268.07 323.509 268.99C324.247 269.904 324.625 271.219 324.643 272.936V275.292ZM322.103 272.708C322.103 271.647 321.956 270.877 321.663 270.396C321.376 269.91 320.925 269.667 320.31 269.667C319.712 269.667 319.27 269.898 318.983 270.361C318.701 270.818 318.552 271.536 318.534 272.514V275.626C318.534 276.669 318.675 277.445 318.956 277.955C319.243 278.459 319.7 278.711 320.327 278.711C320.948 278.711 321.397 278.468 321.672 277.981C321.947 277.495 322.091 276.751 322.103 275.749V272.708Z" fill="#6C6B6B"/>
<path d="M188.863 125.583H186.323V115.792L183.291 116.732V114.667L188.591 112.768H188.863V125.583ZM199.199 125.583H196.659V115.792L193.627 116.732V114.667L198.927 112.768H199.199V125.583Z" fill="#6C6B6B"/>
<path d="M188.863 175.583H186.323V165.792L183.291 166.732V164.667L188.591 162.768H188.863V175.583ZM201.801 175.583H193.029V173.843L197.169 169.43C197.737 168.809 198.156 168.267 198.426 167.804C198.701 167.342 198.839 166.902 198.839 166.486C198.839 165.918 198.695 165.472 198.408 165.15C198.121 164.822 197.711 164.658 197.178 164.658C196.604 164.658 196.15 164.857 195.816 165.256C195.487 165.648 195.323 166.167 195.323 166.811H192.775C192.775 166.032 192.959 165.32 193.328 164.676C193.703 164.031 194.231 163.527 194.91 163.164C195.59 162.795 196.36 162.61 197.222 162.61C198.54 162.61 199.563 162.927 200.289 163.559C201.022 164.192 201.388 165.086 201.388 166.24C201.388 166.873 201.224 167.517 200.896 168.174C200.568 168.83 200.005 169.594 199.208 170.468L196.299 173.535H201.801V175.583Z" fill="#6C6B6B"/>
<path d="M188.863 227.583H186.323V217.792L183.291 218.732V216.667L188.591 214.768H188.863V227.583ZM195.613 220.059H196.967C197.611 220.059 198.089 219.898 198.4 219.576C198.71 219.254 198.865 218.826 198.865 218.293C198.865 217.777 198.71 217.376 198.4 217.089C198.095 216.802 197.673 216.658 197.134 216.658C196.648 216.658 196.24 216.793 195.912 217.062C195.584 217.326 195.42 217.672 195.42 218.099H192.88C192.88 217.431 193.059 216.834 193.416 216.306C193.779 215.773 194.283 215.357 194.928 215.058C195.578 214.76 196.293 214.61 197.072 214.61C198.426 214.61 199.486 214.935 200.254 215.586C201.022 216.23 201.405 217.121 201.405 218.258C201.405 218.844 201.227 219.383 200.869 219.875C200.512 220.367 200.043 220.745 199.463 221.009C200.184 221.266 200.72 221.653 201.071 222.169C201.429 222.684 201.608 223.294 201.608 223.997C201.608 225.134 201.192 226.045 200.359 226.73C199.533 227.416 198.438 227.759 197.072 227.759C195.795 227.759 194.749 227.422 193.935 226.748C193.126 226.074 192.722 225.183 192.722 224.076H195.262C195.262 224.556 195.441 224.949 195.798 225.254C196.161 225.558 196.607 225.711 197.134 225.711C197.737 225.711 198.209 225.552 198.549 225.236C198.895 224.914 199.068 224.489 199.068 223.962C199.068 222.684 198.364 222.046 196.958 222.046H195.613V220.059Z" fill="#6C6B6B"/>
<path d="M188.863 277.583H186.323V267.792L183.291 268.732V266.667L188.591 264.768H188.863V277.583ZM200.544 272.766H201.994V274.814H200.544V277.583H198.004V274.814H192.757L192.643 273.215L197.978 264.786H200.544V272.766ZM195.174 272.766H198.004V268.249L197.837 268.539L195.174 272.766Z" fill="#6C6B6B"/>
<path d="M140.863 125.583H138.323V115.792L135.291 116.732V114.667L140.591 112.768H140.863V125.583ZM145.407 119.29L146.146 112.786H153.318V114.904H148.229L147.912 117.655C148.516 117.333 149.157 117.172 149.837 117.172C151.056 117.172 152.011 117.55 152.702 118.305C153.394 119.061 153.739 120.119 153.739 121.478C153.739 122.304 153.564 123.046 153.212 123.702C152.866 124.352 152.368 124.859 151.718 125.222C151.068 125.58 150.3 125.759 149.415 125.759C148.642 125.759 147.924 125.603 147.262 125.293C146.6 124.976 146.075 124.534 145.689 123.966C145.308 123.397 145.106 122.75 145.082 122.023H147.596C147.649 122.556 147.833 122.972 148.15 123.271C148.472 123.564 148.891 123.711 149.406 123.711C149.981 123.711 150.423 123.506 150.734 123.095C151.044 122.679 151.199 122.094 151.199 121.338C151.199 120.611 151.021 120.054 150.663 119.668C150.306 119.281 149.799 119.088 149.143 119.088C148.539 119.088 148.05 119.246 147.675 119.562L147.429 119.791L145.407 119.29Z" fill="#6C6B6B"/>
<path d="M141.863 175.583H139.323V165.792L136.291 166.732V164.667L141.591 162.768H141.863V175.583ZM152.92 162.654V164.746H152.674C151.526 164.763 150.6 165.062 149.897 165.642C149.199 166.222 148.78 167.028 148.64 168.059C149.319 167.368 150.178 167.022 151.215 167.022C152.328 167.022 153.213 167.421 153.869 168.218C154.526 169.014 154.854 170.063 154.854 171.364C154.854 172.196 154.672 172.949 154.309 173.623C153.951 174.297 153.442 174.821 152.779 175.196C152.123 175.571 151.379 175.759 150.547 175.759C149.199 175.759 148.11 175.29 147.277 174.352C146.451 173.415 146.038 172.164 146.038 170.599V169.685C146.038 168.297 146.299 167.072 146.82 166.011C147.348 164.945 148.101 164.122 149.079 163.542C150.064 162.956 151.203 162.66 152.498 162.654H152.92ZM150.442 169.061C150.031 169.061 149.659 169.17 149.325 169.386C148.991 169.597 148.745 169.879 148.587 170.23V171.004C148.587 171.853 148.754 172.518 149.088 172.999C149.422 173.473 149.891 173.711 150.494 173.711C151.039 173.711 151.479 173.497 151.813 173.069C152.152 172.635 152.322 172.076 152.322 171.39C152.322 170.693 152.152 170.131 151.813 169.703C151.473 169.275 151.016 169.061 150.442 169.061Z" fill="#6C6B6B"/>
<path d="M141.863 227.583H139.323V217.792L136.291 218.732V216.667L141.591 214.768H141.863V227.583ZM154.731 216.21L149.782 227.583H147.102L152.059 216.843H145.695V214.786H154.731V216.21Z" fill="#6C6B6B"/>
<path d="M25.8634 123.583H23.3233V113.792L20.2911 114.732V112.667L25.5909 110.768H25.8634V123.583ZM35.9708 118.468C35.3087 119.118 34.5352 119.443 33.6505 119.443C32.5196 119.443 31.6143 119.056 30.9347 118.283C30.255 117.504 29.9151 116.455 29.9151 115.136C29.9151 114.299 30.0968 113.531 30.4601 112.834C30.8292 112.131 31.3419 111.586 31.9981 111.199C32.6544 110.806 33.3927 110.61 34.213 110.61C35.0567 110.61 35.8067 110.821 36.463 111.243C37.1192 111.665 37.629 112.271 37.9923 113.062C38.3556 113.853 38.5401 114.759 38.546 115.778V116.719C38.546 118.851 38.0157 120.527 36.9552 121.746C35.8946 122.965 34.3917 123.615 32.4464 123.697L31.8224 123.706V121.588L32.3849 121.579C34.5938 121.479 35.7892 120.442 35.9708 118.468ZM34.2745 117.501C34.6847 117.501 35.0362 117.395 35.3292 117.184C35.628 116.973 35.8536 116.719 36.006 116.42V115.374C36.006 114.512 35.8419 113.844 35.5138 113.37C35.1856 112.895 34.7462 112.658 34.1954 112.658C33.6856 112.658 33.2667 112.892 32.9386 113.361C32.6104 113.824 32.4464 114.407 32.4464 115.11C32.4464 115.807 32.6046 116.382 32.921 116.833C33.2433 117.278 33.6944 117.501 34.2745 117.501Z" fill="#6C6B6B"/>
<path d="M28.4649 175.583H19.6935V173.843L23.8331 169.43C24.4015 168.809 24.8204 168.267 25.0899 167.804C25.3653 167.342 25.503 166.902 25.503 166.486C25.503 165.918 25.3595 165.472 25.0724 165.15C24.7852 164.822 24.3751 164.658 23.8419 164.658C23.2677 164.658 22.8136 164.857 22.4796 165.256C22.1515 165.648 21.9874 166.167 21.9874 166.811H19.4386C19.4386 166.032 19.6231 165.32 19.9923 164.676C20.3673 164.031 20.8946 163.527 21.5743 163.164C22.254 162.795 23.0245 162.61 23.8858 162.61C25.2042 162.61 26.2267 162.927 26.9532 163.559C27.6856 164.192 28.0518 165.086 28.0518 166.24C28.0518 166.873 27.8878 167.517 27.5597 168.174C27.2315 168.83 26.669 169.594 25.8722 170.468L22.963 173.535H28.4649V175.583ZM38.6427 170.292C38.6427 172.061 38.2765 173.415 37.544 174.352C36.8116 175.29 35.7393 175.759 34.3272 175.759C32.9327 175.759 31.8663 175.299 31.128 174.379C30.3897 173.459 30.0118 172.14 29.9942 170.424V168.068C29.9942 166.281 30.3634 164.925 31.1017 163.999C31.8458 163.073 32.9151 162.61 34.3097 162.61C35.7042 162.61 36.7706 163.07 37.5089 163.99C38.2472 164.904 38.6251 166.219 38.6427 167.936V170.292ZM36.1026 167.708C36.1026 166.647 35.9561 165.877 35.6632 165.396C35.3761 164.91 34.9249 164.667 34.3097 164.667C33.712 164.667 33.2696 164.898 32.9825 165.361C32.7013 165.818 32.5518 166.536 32.5343 167.514V170.626C32.5343 171.669 32.6749 172.445 32.9561 172.955C33.2433 173.459 33.7003 173.711 34.3272 173.711C34.9483 173.711 35.3966 173.468 35.672 172.981C35.9474 172.495 36.0909 171.751 36.1026 170.749V167.708Z" fill="#6C6B6B"/>
<path d="M28.4649 225.583H19.6935V223.843L23.8331 219.43C24.4015 218.809 24.8204 218.267 25.0899 217.804C25.3653 217.342 25.503 216.902 25.503 216.486C25.503 215.918 25.3595 215.472 25.0724 215.15C24.7852 214.822 24.3751 214.658 23.8419 214.658C23.2677 214.658 22.8136 214.857 22.4796 215.256C22.1515 215.648 21.9874 216.167 21.9874 216.811H19.4386C19.4386 216.032 19.6231 215.32 19.9923 214.676C20.3673 214.031 20.8946 213.527 21.5743 213.164C22.254 212.795 23.0245 212.61 23.8858 212.61C25.2042 212.61 26.2267 212.927 26.9532 213.559C27.6856 214.192 28.0518 215.086 28.0518 216.24C28.0518 216.873 27.8878 217.517 27.5597 218.174C27.2315 218.83 26.669 219.594 25.8722 220.468L22.963 223.535H28.4649V225.583ZM36.1993 225.583H33.6593V215.792L30.627 216.732V214.667L35.9268 212.768H36.1993V225.583Z" fill="#6C6B6B"/>
<path d="M141.863 277.583H139.323V267.792L136.291 268.732V266.667L141.591 264.768H141.863V277.583ZM154.37 268.187C154.37 268.808 154.215 269.359 153.904 269.84C153.594 270.32 153.166 270.704 152.621 270.991C153.242 271.29 153.735 271.703 154.098 272.23C154.461 272.752 154.643 273.367 154.643 274.076C154.643 275.213 154.256 276.112 153.483 276.774C152.709 277.43 151.657 277.759 150.327 277.759C148.997 277.759 147.943 277.427 147.163 276.765C146.384 276.103 145.994 275.207 145.994 274.076C145.994 273.367 146.176 272.749 146.539 272.221C146.902 271.694 147.392 271.284 148.007 270.991C147.462 270.704 147.034 270.32 146.724 269.84C146.419 269.359 146.267 268.808 146.267 268.187C146.267 267.097 146.63 266.23 147.357 265.586C148.083 264.935 149.07 264.61 150.319 264.61C151.561 264.61 152.545 264.932 153.272 265.577C154.004 266.216 154.37 267.086 154.37 268.187ZM152.094 273.891C152.094 273.335 151.933 272.889 151.611 272.555C151.288 272.221 150.855 272.054 150.31 272.054C149.771 272.054 149.34 272.221 149.018 272.555C148.695 272.884 148.534 273.329 148.534 273.891C148.534 274.436 148.693 274.876 149.009 275.21C149.325 275.544 149.765 275.711 150.327 275.711C150.878 275.711 151.309 275.55 151.619 275.227C151.936 274.905 152.094 274.46 152.094 273.891ZM151.83 268.31C151.83 267.812 151.698 267.414 151.435 267.115C151.171 266.81 150.799 266.658 150.319 266.658C149.844 266.658 149.475 266.804 149.211 267.097C148.947 267.39 148.816 267.795 148.816 268.31C148.816 268.82 148.947 269.23 149.211 269.541C149.475 269.851 149.847 270.007 150.327 270.007C150.808 270.007 151.177 269.851 151.435 269.541C151.698 269.23 151.83 268.82 151.83 268.31Z" fill="#6C6B6B"/>
<path d="M33.5734 20.2077V27.4577C33.5734 28.7869 34.6609 29.8744 35.99 29.8744H37.1984V38.3327C37.1984 38.9973 37.7421 39.5411 38.4067 39.5411C39.0713 39.5411 39.615 38.9973 39.615 38.3327V16.7398C39.615 15.9544 38.8779 15.3744 38.1167 15.5556C35.5067 16.1961 33.5734 18.4073 33.5734 20.2077ZM27.5317 23.8327H25.115V16.5827C25.115 15.9181 24.5713 15.3744 23.9067 15.3744C23.2421 15.3744 22.6984 15.9181 22.6984 16.5827V23.8327H20.2817V16.5827C20.2817 15.9181 19.7379 15.3744 19.0734 15.3744C18.4088 15.3744 17.865 15.9181 17.865 16.5827V23.8327C17.865 26.5031 20.0279 28.6661 22.6984 28.6661V38.3327C22.6984 38.9973 23.2421 39.5411 23.9067 39.5411C24.5713 39.5411 25.115 38.9973 25.115 38.3327V28.6661C27.7854 28.6661 29.9484 26.5031 29.9484 23.8327V16.5827C29.9484 15.9181 29.4046 15.3744 28.74 15.3744C28.0754 15.3744 27.5317 15.9181 27.5317 16.5827V23.8327Z" fill="#6C6B6B"/>
<line x1="318.897" y1="27.6302" x2="278.897" y2="68.6302" stroke="#EFEFEF" stroke-width="3"/>
</svg>
