<svg width="74" height="74" viewBox="0 0 74 74" fill="none" xmlns="http://www.w3.org/2000/svg">
<path d="M61.6667 6.16669H12.3333C8.94166 6.16669 6.16666 8.94169 6.16666 12.3334V67.8334L18.5 55.5H61.6667C65.0583 55.5 67.8333 52.725 67.8333 49.3334V12.3334C67.8333 8.94169 65.0583 6.16669 61.6667 6.16669ZM18.5 43.1667V35.5509L39.7133 14.3375C40.33 13.7209 41.2858 13.7209 41.9025 14.3375L47.36 19.795C47.9767 20.4117 47.9767 21.3675 47.36 21.9842L26.1158 43.1667H18.5ZM52.4167 43.1667H32.375L38.5417 37H52.4167C54.1125 37 55.5 38.3875 55.5 40.0834C55.5 41.7792 54.1125 43.1667 52.4167 43.1667Z" fill="#5355FA"/>
</svg>
