<svg width="79" height="79" viewBox="0 0 79 79" fill="none" xmlns="http://www.w3.org/2000/svg">
<path d="M75.7083 39.5L67.6767 30.3162L68.7958 18.17L56.9129 15.4708L50.6917 4.9375L39.5 9.74333L28.3083 4.9375L22.0871 15.4379L10.2042 18.1042L11.3233 30.2833L3.29166 39.5L11.3233 48.6838L10.2042 60.8629L22.0871 63.5621L28.3083 74.0625L39.5 69.2238L50.6917 74.0296L56.9129 63.5292L68.7958 60.83L67.6767 48.6838L75.7083 39.5ZM30.8758 52.6996L23.0417 44.7996C21.7579 43.5158 21.7579 41.4421 23.0417 40.1583L23.2721 39.9279C24.5558 38.6442 26.6625 38.6442 27.9462 39.9279L33.2458 45.2604L50.1979 28.2754C51.4817 26.9917 53.5883 26.9917 54.8721 28.2754L55.1025 28.5058C56.3862 29.7896 56.3862 31.8633 55.1025 33.1471L35.6158 52.6996C34.2662 53.9833 32.1925 53.9833 30.8758 52.6996Z" fill="#5355FA"/>
</svg>
