<?xml version="1.0" encoding="utf-8"?>
<!-- Generator: Adobe Illustrator 24.2.0, SVG Export Plug-In . SVG Version: 6.00 Build 0)  -->
<svg version="1.1" id="Calque_1" xmlns="http://www.w3.org/2000/svg" xmlns:xlink="http://www.w3.org/1999/xlink" x="0px" y="0px"
	 viewBox="0 0 326.9 210.8" style="enable-background:new 0 0 326.9 210.8;" xml:space="preserve">
<style type="text/css">
	.st0{fill:#FF9900;}
</style>
<g>
	<path d="M104.9,59.9c-2.5,0-4.9-0.2-7.4-0.5c-2.5-0.3-4.7-0.9-6.7-1.8s-3.6-2.1-4.8-3.7c-1.2-1.6-1.8-3.7-1.8-6.2V1.2h14.9v23.4
		l-2.5-4.7c0.9-1.5,2.2-2.6,3.8-3.3c1.6-0.8,3.1-1.3,4.7-1.5s2.9-0.4,3.9-0.4c6.1,0,10.9,1.9,14.2,5.7c3.3,3.8,5,9.5,5,17.1
		c0,4-0.5,7.5-1.6,10.3c-1,2.9-2.6,5.2-4.6,7c-2,1.8-4.5,3.1-7.3,4C111.8,59.5,108.6,59.9,104.9,59.9z M104.9,47.4
		c1.8,0,3.3-0.3,4.5-1c1.2-0.7,2.1-1.7,2.8-3.1c0.6-1.3,0.9-3,0.9-4.9c0-3.2-0.4-5.7-1.2-7.4c-0.8-1.7-1.9-2.9-3.1-3.5
		c-1.3-0.6-2.7-1-4.1-1c-0.8,0-1.8,0.1-2.8,0.3c-1,0.2-1.9,0.5-2.7,1v15.9c0,0.9,0.2,1.6,0.6,2.2c0.4,0.6,1.1,1,1.9,1.2
		C102.5,47.3,103.6,47.4,104.9,47.4z"/>
	<path d="M144.1,11V0h15.6v11H144.1z M144.2,58.7V16.8h15.2l0.2,41.8H144.2z"/>
	<path d="M193.2,58.7h-15.1V0h15.3L193.2,58.7z M190,35.9L204.4,16h18.4l-23.2,26.2L190,35.9z M202.2,28.7l20.8,30h-19.1l-12.7-19.5
		L202.2,28.7z"/>
	<path d="M254.3,59.9c-4.4,0-8.3-0.9-11.7-2.7c-3.4-1.8-6.1-4.3-8-7.6s-2.8-7.1-2.8-11.4c0-7.5,1.9-13.3,5.7-17.6
		c3.8-4.2,9.4-6.3,16.6-6.3c4.7,0,8.6,1,11.6,3c3,2,5.2,5,6.6,9.1c1.4,4.1,2.1,9.1,2.1,15.1h-31.8l-2-9h20.7l-1.6,5.2
		c-0.1-4.6-0.5-7.8-1.5-9.6c-0.9-1.8-2.5-2.6-4.8-2.6c-1.1,0-2.1,0.3-3.1,1c-1,0.7-1.8,1.8-2.4,3.4c-0.6,1.5-0.9,3.6-0.9,6.2
		c0,3.6,0.9,6.4,2.6,8.4c1.7,2,4.7,2.9,8.9,2.9c1.4,0,2.8-0.2,4.3-0.6s2.8-0.8,4.1-1.3s2.3-0.8,3.2-1v12.7c-2,0.7-4.2,1.4-6.7,1.9
		S257.8,59.9,254.3,59.9z"/>
	<path d="M166.2,130.6c-5.8,0-9.9-1.3-12.5-3.8c-2.6-2.5-3.9-6.1-3.9-10.6v-19h-5.7V85.8h5.7V74.2h16.1v11.6h8.7v11.3h-8.7v17.6
		c0,1.1,0.3,1.8,0.9,2.3c0.6,0.5,1.4,0.8,2.6,0.8c0.8,0,1.7-0.2,2.7-0.6c1-0.4,1.9-0.9,2.6-1.5v12.8c-1.4,0.8-2.8,1.3-4.2,1.6
		C168.9,130.4,167.5,130.6,166.2,130.6z"/>
	<path d="M211.8,129.7c-4.4,0-8.3-0.9-11.7-2.7c-3.4-1.8-6.1-4.3-8-7.6c-1.9-3.3-2.8-7.1-2.8-11.4c0-7.5,1.9-13.3,5.7-17.6
		c3.8-4.2,9.4-6.3,16.6-6.3c4.7,0,8.6,1,11.6,3s5.2,5,6.6,9.1c1.4,4.1,2.1,9.1,2.1,15.1H200l-2-9h20.7l-1.6,5.2
		c-0.1-4.6-0.5-7.8-1.5-9.6c-0.9-1.8-2.5-2.6-4.8-2.6c-1.1,0-2.1,0.3-3.1,1c-1,0.7-1.8,1.8-2.4,3.4c-0.6,1.5-0.9,3.6-0.9,6.2
		c0,3.6,0.9,6.4,2.6,8.4c1.7,2,4.7,2.9,8.9,2.9c1.4,0,2.8-0.2,4.3-0.6c1.5-0.4,2.8-0.8,4.1-1.3c1.3-0.5,2.3-0.8,3.2-1v12.7
		c-2,0.7-4.2,1.4-6.7,1.9S215.2,129.7,211.8,129.7z"/>
	<path d="M260.6,129.7c-3,0-5.6-0.3-7.8-1c-2.2-0.7-4.2-1.3-5.9-1.9v-12.9c0.9,0.7,2.1,1.5,3.6,2.3s3.2,1.5,5.1,2.1
		c1.9,0.6,3.9,0.9,5.9,0.9c1.6,0,2.6-0.2,3.1-0.7c0.4-0.5,0.6-1,0.6-1.5c0-0.7-0.4-1.2-1.3-1.7c-0.8-0.5-1.9-0.9-3.3-1.2
		c-1.3-0.3-2.8-0.6-4.3-0.8c-1.2-0.2-2.4-0.6-3.6-1.2c-1.2-0.6-2.3-1.4-3.2-2.5c-1-1.1-1.7-2.4-2.3-3.9c-0.6-1.6-0.8-3.4-0.8-5.4
		c0-3,0.6-5.4,1.7-7.4c1.1-2,2.7-3.5,4.5-4.7c1.9-1.2,3.9-2,6-2.5c2.2-0.5,4.2-0.7,6.2-0.7c3.9,0.2,6.9,0.6,9,1.2
		c2.1,0.6,4,1.5,5.5,2.6l0.1,11.3c-1.8-1-3.7-2-5.7-3s-4.2-1.5-6.7-1.5c-2.1,0-3.4,0.3-4,0.8s-0.9,1.2-0.9,2c0,0.8,0.3,1.5,0.8,2
		c0.5,0.5,1.2,0.9,2.1,1.1c0.9,0.3,1.8,0.6,2.9,0.8c1.4,0.3,2.8,0.7,4.3,1.1c1.5,0.4,2.9,1.1,4.2,2c1.3,0.9,2.4,2.1,3.2,3.7
		c0.8,1.6,1.2,3.7,1.2,6.4c-0.1,3.6-1.1,6.4-3,8.5c-1.9,2.1-4.3,3.5-7.4,4.4S264.3,129.7,260.6,129.7z"/>
	<path d="M316.6,130.6c-5.8,0-9.9-1.3-12.5-3.8s-3.9-6.1-3.9-10.6v-19h-5.7V85.8h5.7V74.2h16.1v11.6h8.7v11.3h-8.7v17.6
		c0,1.1,0.3,1.8,0.9,2.3c0.6,0.5,1.4,0.8,2.6,0.8c0.8,0,1.7-0.2,2.7-0.6c1-0.4,1.9-0.9,2.6-1.5v12.8c-1.4,0.8-2.8,1.3-4.2,1.6
		C319.3,130.4,317.9,130.6,316.6,130.6z"/>
	<path d="M100.1,192.6c-3.6-0.3-6.8-1.2-9.6-2.7c-2.8-1.5-4.9-3.8-6.5-6.8c-1.6-3-2.3-6.9-2.3-11.7c0-4.6,0.5-8.5,1.6-11.6
		c1.1-3.1,2.7-5.6,4.9-7.4c2.1-1.8,4.8-3.1,8-3.9s6.9-1.2,11.1-1.2c3.9,0,7.2,0.5,9.9,1.5c2.7,1,4.8,2.3,6.2,4.1
		c1.4,1.8,2.1,3.9,2.1,6.3v32.2c0,3.5-0.6,6.5-1.7,9c-1.1,2.5-2.8,4.5-4.9,6c-2.1,1.6-4.5,2.7-7.3,3.4c-2.8,0.7-5.9,1.1-9.2,1.1
		c-4.2,0-7.8-0.3-10.8-0.8c-2.9-0.6-5.1-1.3-6.5-2.2v-13.3c0.8,0.4,2.2,1,4,1.6c1.8,0.6,3.9,1.2,6.2,1.6c2.3,0.4,4.5,0.7,6.7,0.7
		c2.1,0,3.8-0.3,5.1-1c1.3-0.6,2.2-1.5,2.7-2.7c0.6-1.2,0.8-2.6,0.8-4.3v-7.1l2.7,1.6c-0.8,1.6-1.8,2.9-2.9,4.1
		c-1.1,1.1-2.4,2-4.1,2.6S102.6,192.6,100.1,192.6z M104.7,181.6c1.3,0,2.4-0.1,3.3-0.4c0.9-0.3,1.8-0.6,2.6-1v-17.4
		c0-1.1-0.3-1.8-0.8-2.3c-0.6-0.5-1.3-0.9-2.1-1c-0.8-0.2-1.7-0.3-2.6-0.3c-1.9,0-3.5,0.4-4.7,1.3c-1.2,0.9-2.1,2.2-2.7,3.9
		c-0.6,1.7-0.9,3.7-0.9,6.1c0,3.5,0.8,6.3,2.4,8.3C100.8,180.6,102.6,181.6,104.7,181.6z"/>
	<path d="M136.8,191.3v-37.7c0.8-0.8,2.3-1.7,4.3-2.7c2-1,4.3-1.8,6.9-2.6c2.6-0.7,5.1-1.1,7.5-1.1c3.6,0,6.3,0.3,8.3,0.8
		c2,0.5,3.4,1.1,4.4,1.9v10.8c-0.8-0.2-1.9-0.4-3.4-0.6c-1.5-0.2-3.1-0.3-4.7-0.4c-1.7-0.1-3.2-0.1-4.7-0.1c-1.5,0-2.6,0.1-3.4,0.2
		v31.6H136.8z"/>
	<path d="M187.8,207.8c-1.6,0-3.2-0.2-4.9-0.5c-1.6-0.3-3-0.7-4.3-1.3v-12.1c1.2,0.4,2.2,0.7,3,0.8c0.8,0.1,1.7,0.2,2.5,0.2
		c1.2,0,2.2-0.2,3.2-0.7c1-0.5,1.8-1.4,2.4-2.8c0.6-1.4,1.1-3.5,1.3-6.3l0.4,9l-18.4-45.4h17.4l7.9,27.2h-1.3l7.7-27.2h16.5
		l-16.1,41.8c-1.6,4.2-3.4,7.6-5.2,10.1c-1.8,2.5-3.8,4.4-5.9,5.5C192.3,207.2,190.1,207.8,187.8,207.8z"/>
	<path d="M247.7,192.6c-7.4,0-13-1.9-16.8-5.7c-3.8-3.8-5.7-9.5-5.7-17.2c0-8.3,1.9-14.2,5.7-17.6c3.8-3.4,9.4-5.1,16.8-5.1
		c4.9,0,9,0.7,12.4,2.2c3.4,1.5,5.9,3.9,7.7,7.2c1.8,3.3,2.6,7.8,2.6,13.3c0,7.7-2,13.4-5.9,17.2C260.7,190.7,255,192.6,247.7,192.6
		z M247.7,180.7c1.5,0,2.8-0.4,4-1.1c1.1-0.8,2-1.9,2.7-3.6c0.6-1.6,1-3.7,1-6.3c0-3.1-0.3-5.4-1-7c-0.6-1.6-1.5-2.6-2.7-3.2
		c-1.1-0.6-2.5-0.8-4-0.8c-1.6,0-2.9,0.3-4,0.8c-1.1,0.6-2,1.6-2.5,3.2c-0.6,1.6-0.8,3.9-0.8,7c0,4,0.6,6.8,1.9,8.5
		C243.5,179.8,245.3,180.7,247.7,180.7z"/>
	<path d="M280.1,152.3c0.9-0.5,2.3-1,4.2-1.6c1.8-0.6,3.9-1.1,6.2-1.6c2.3-0.5,4.6-0.9,7-1.3c2.3-0.3,4.5-0.5,6.4-0.5
		c3.7,0,6.9,0.4,9.7,1.3c2.8,0.9,5,2.4,6.5,4.5c1.6,2.2,2.3,5.2,2.3,9.1v29.1h-15.2v-25.4c0-1.1-0.2-2.1-0.5-2.9
		c-0.3-0.8-0.8-1.5-1.3-1.9c-0.6-0.5-1.3-0.8-2.2-1c-0.9-0.2-1.9-0.3-3-0.3c-1.1,0-2.1,0.2-3.1,0.5c-1,0.3-1.6,0.6-1.8,0.9v30.2
		h-15.2V152.3z"/>
</g>
<path class="st0" d="M131.9,85.6H45c-1.2,0-2.2-1-2.2-2.2v-1.7c0-1.2,1-2.2,2.2-2.2h86.9c1.2,0,2.2,1,2.2,2.2v1.7
	C134.1,84.6,133.1,85.6,131.9,85.6z"/>
<path class="st0" d="M116.1,99.4H2.2c-1.2,0-2.2-1-2.2-2.2l0-1.7c0-1.2,1-2.2,2.2-2.2h113.8c1.2,0,2.2,1,2.2,2.2v1.7
	C118.3,98.4,117.3,99.4,116.1,99.4z"/>
<path class="st0" d="M128.1,113.2H63.9c-1.2,0-2.2-1-2.2-2.2v-1.7c0-1.2,1-2.2,2.2-2.2h64.2c1.2,0,2.2,1,2.2,2.2v1.7
	C130.3,112.2,129.3,113.2,128.1,113.2z"/>
<path class="st0" d="M137.6,126.9H34.1c-1.2,0-2.2-1-2.2-2.2V123c0-1.2,1-2.2,2.2-2.2h103.4c1.2,0,2.2,1,2.2,2.2v1.7
	C139.8,125.9,138.8,126.9,137.6,126.9z"/>
</svg>
